<?xml version="1.0" encoding="UTF-8" standalone="no"?>
<svg
   xmlns:dc="http://purl.org/dc/elements/1.1/"
   xmlns:cc="http://creativecommons.org/ns#"
   xmlns:rdf="http://www.w3.org/1999/02/22-rdf-syntax-ns#"
   xmlns:svg="http://www.w3.org/2000/svg"
   xmlns="http://www.w3.org/2000/svg"
   xmlns:sodipodi="http://sodipodi.sourceforge.net/DTD/sodipodi-0.dtd"
   xmlns:inkscape="http://www.inkscape.org/namespaces/inkscape"
   inkscape:export-ydpi="96"
   inkscape:export-xdpi="96"
   inkscape:export-filename="/home/phil/Downloads/Forum_Logo.png"
   inkscape:version="1.0 (4035a4fb49, 2020-05-01)"
   sodipodi:docname="Forum_Logo.svg"
   id="svg25"
   version="1.1"
   fill="none"
   viewBox="0 0 194 29"
   height="29"
   width="194">
  <metadata
     id="metadata31">
    <rdf:RDF>
      <cc:Work
         rdf:about="">
        <dc:format>image/svg+xml</dc:format>
        <dc:type
           rdf:resource="http://purl.org/dc/dcmitype/StillImage" />
      </cc:Work>
    </rdf:RDF>
  </metadata>
  <defs
     id="defs29" />
  <sodipodi:namedview
     inkscape:current-layer="svg25"
     inkscape:window-maximized="0"
     inkscape:window-y="30"
     inkscape:window-x="0"
     inkscape:cy="-4.2917043"
     inkscape:cx="97.053389"
     inkscape:zoom="4.6654468"
     showgrid="false"
     id="namedview27"
     inkscape:window-height="1376"
     inkscape:window-width="1720"
     inkscape:pageshadow="2"
     inkscape:pageopacity="0"
     guidetolerance="10"
     gridtolerance="10"
     objecttolerance="10"
     borderopacity="1"
     bordercolor="#666666"
     pagecolor="#ffffff" />
  <path
     style="fill:#ffffff"
     id="path2"
     fill="black"
     d="M55.8117 7.83868V11.4954H59.1398V13.4399H55.8117V19.1801C55.8117 20.4299 56.4592 21.1241 57.5535 21.1241H59.1398V23.1613H57.3751C55.0971 23.1613 53.645 21.7261 53.645 19.3418V13.4399H51.3441V11.4954H53.645V7.83868H55.8117Z"
     clip-rule="evenodd"
     fill-rule="evenodd" />
  <path
     style="fill:#ffffff"
     id="path4"
     fill="black"
     d="M62.4473 15.9032H68.8648C68.73 14.1053 67.5628 12.9146 65.7007 12.9146C63.9285 12.9146 62.7837 13.9422 62.4473 15.9032V15.9032ZM71.2365 19.1599C70.8284 21.5796 68.7647 23.1613 65.9523 23.1613C62.4149 23.1613 60.215 20.3001 60.215 17.043C60.215 13.7631 62.2111 11.0645 65.7258 11.0645C69.2632 11.0645 71.1457 13.6467 71.1457 16.6243C71.1457 16.9265 71.123 17.2992 71.1003 17.5083H62.3695C62.5506 19.7183 63.9568 21.2302 65.9523 21.2302C67.6305 21.2302 68.7193 20.4859 69.0367 19.1599H71.2365Z"
     clip-rule="evenodd"
     fill-rule="evenodd" />
  <path
     style="fill:#ffffff"
     id="path6"
     fill="black"
     d="M72.8495 17.1129C72.8495 13.879 74.9216 11.0645 78.5421 11.0645C81.2293 11.0645 83.5523 12.6928 83.871 15.3448H81.662C81.4568 14.0188 80.1365 13.0416 78.5877 13.0416C76.288 13.0416 75.1491 14.8562 75.1491 17.1129C75.1491 19.3695 76.3108 21.1836 78.5877 21.1836C80.1593 21.1836 81.3205 20.3467 81.6848 19.0201H83.871C83.5067 21.4864 81.4568 23.1613 78.5421 23.1613C74.9216 23.1613 72.8495 20.3467 72.8495 17.1129"
     clip-rule="evenodd"
     fill-rule="evenodd" />
  <mask
     height="25"
     width="128"
     y="3"
     x="0"
     maskUnits="userSpaceOnUse"
     mask-type="alpha"
     id="mask0">
    <path
       id="path8"
       fill="white"
       d="M0 28H127.957V3H0V28Z"
       clip-rule="evenodd"
       fill-rule="evenodd" />
  </mask>
  <g
     style="fill:#ffffff"
     id="g21"
     mask="url(#mask0)">
    <path
       style="fill:#ffffff"
       id="path11"
       fill="black"
       d="M86.0215 22.8924H88.172V6.4946H86.0215V22.8924Z"
       clip-rule="evenodd"
       fill-rule="evenodd" />
    <path
       style="fill:#ffffff"
       id="path13"
       fill="black"
       d="M98.4063 17.892V17.611H95.3921C93.862 17.611 92.8648 18.4077 92.8648 19.6496C92.8648 20.7273 93.7459 21.4535 95.0444 21.4535C97.1775 21.4535 98.4063 20.0714 98.4063 17.892M100.538 15.4147V22.9755H98.3094V21.0682C97.7585 22.3244 96.2882 23.1613 94.5424 23.1613C92.1767 23.1613 90.6144 21.7193 90.6144 19.6257C90.6144 17.3691 92.3832 15.9732 95.1168 15.9732H97.5285C98.057 15.9732 98.3094 15.6942 98.3094 15.2755C98.3094 13.8563 97.2991 12.8791 95.5073 12.8791C93.899 12.8791 92.7276 13.9029 92.6592 15.0892H90.5914C90.7754 12.7859 92.8426 11.0645 95.5763 11.0645C98.5619 11.0645 100.538 12.8092 100.538 15.4147"
       clip-rule="evenodd"
       fill-rule="evenodd" />
    <path
       style="fill:#ffffff"
       id="path15"
       fill="black"
       d="M111.619 17.1587C111.619 14.7431 110.243 13.133 108.123 13.133C106.025 13.133 104.65 14.7431 104.65 17.1587C104.65 19.5738 106.025 21.1839 108.123 21.1839C110.243 21.1839 111.619 19.5738 111.619 17.1587M102.419 17.1677C102.419 13.7098 104.392 11.1741 107.883 11.1741C109.447 11.1741 110.83 11.9347 111.51 13.0641V6.4946H113.71V22.9766H111.51V21.2477C110.83 22.4001 109.425 23.1613 107.906 23.1613C104.392 23.1613 102.419 20.6256 102.419 17.1677"
       clip-rule="evenodd"
       fill-rule="evenodd" />
    <path
       style="fill:#ffffff"
       id="path17"
       fill="black"
       d="M125.704 17.1132C125.704 14.7256 124.221 13.0569 122.055 13.0569C119.865 13.0569 118.382 14.7256 118.382 17.1132C118.382 19.5002 119.865 21.1689 122.055 21.1689C124.221 21.1689 125.704 19.5002 125.704 17.1132M116.129 17.1129C116.129 13.6001 118.614 11.0645 122.055 11.0645C125.496 11.0645 127.957 13.6001 127.957 17.1129C127.957 20.6251 125.496 23.1613 122.055 23.1613C118.614 23.1613 116.129 20.6251 116.129 17.1129"
       clip-rule="evenodd"
       fill-rule="evenodd" />
    <path
       style="fill:#ffffff"
       id="path19"
       fill="black"
       d="M17.5465 23.904H19.0906V14.7232H17.5465V23.904ZM12.2436 23.0565L11.1974 22.1583L11.9049 21.3914C12.3088 20.9429 12.6881 20.5944 13.1024 20.3171H4.77266V19.0157H13.1177C12.6881 18.7483 12.3242 18.3905 11.9049 17.9414L11.1974 17.1751L12.2436 16.2769L15.3006 19.6667L12.2436 23.0565ZM38.1046 3H3.02446C1.35395 3 0 4.36556 0 6.04985V24.9496C0 26.6344 1.35395 28 3.02446 28H38.1046C39.7745 28 41.129 26.6344 41.129 24.9496V6.04985C41.129 4.36556 39.7745 3 38.1046 3V3Z"
       clip-rule="evenodd"
       fill-rule="evenodd" />
  </g>
  <path
     id="path23"
     fill="#50E3C2"
     d="M132.265 23H134.5V13.3232H138.002V11.3878H134.5V10.328C134.5 9.176 135.191 8.46176 136.251 8.46176H138.002V6.5264H136.089C133.762 6.5264 132.265 7.97792 132.265 10.2589V11.3878H129.892V13.3232H132.265V23ZM144.508 23.1843C147.987 23.1843 150.476 20.673 150.476 17.1939C150.476 13.7149 147.987 11.2035 144.508 11.2035C141.029 11.2035 138.518 13.7149 138.518 17.1939C138.518 20.673 141.029 23.1843 144.508 23.1843ZM144.508 21.2259C142.296 21.2259 140.799 19.567 140.799 17.1939C140.799 14.8208 142.296 13.1619 144.508 13.1619C146.697 13.1619 148.195 14.8208 148.195 17.1939C148.195 19.567 146.697 21.2259 144.508 21.2259ZM159.391 13.3232V11.3878H157.986C156.35 11.3878 155.428 12.079 154.898 13.6227V11.3878H152.663V23H154.898V17.7469C154.898 15.2125 155.59 13.3232 157.709 13.3232H159.391ZM171.467 11.3878H169.232V17.6778C169.232 19.7053 167.942 21.1798 166.122 21.1798C164.486 21.1798 163.403 19.9357 163.403 18.0925V11.3878H161.168V18.5302C161.168 21.295 162.873 23.1843 165.5 23.1843C167.228 23.1843 168.61 22.401 169.232 20.9494V23H171.467V11.3878ZM174.331 23H176.566V16.2493C176.566 14.4061 177.626 13.1619 179.4 13.1619C180.92 13.1619 181.842 14.4061 181.842 16.2493V23H184.077V16.2493C184.077 14.4061 185.137 13.1619 186.911 13.1619C188.455 13.1619 189.376 14.4061 189.376 16.2493V23H191.611V15.6272C191.611 12.9315 190.044 11.2035 187.533 11.2035C185.736 11.2035 184.215 12.2634 183.754 13.5766C183.294 12.056 181.888 11.2035 179.999 11.2035C178.294 11.2035 177.05 12.1482 176.566 13.4614V11.3878H174.331V23Z" />
</svg>
